<?xml version="1.0" encoding="UTF-8" standalone="no"?>
<!DOCTYPE svg PUBLIC "-//W3C//DTD SVG 1.1//EN" "http://www.w3.org/Graphics/SVG/1.1/DTD/svg11.dtd">
<svg width="100%" height="100%" viewBox="0 0 1375 309" version="1.1" xmlns="http://www.w3.org/2000/svg" xmlns:xlink="http://www.w3.org/1999/xlink" xml:space="preserve" xmlns:serif="http://www.serif.com/" style="fill-rule:evenodd;clip-rule:evenodd;stroke-linejoin:round;stroke-miterlimit:2;">
    <g transform="matrix(1.38889,0,0,1.38889,-93.75,-152.618)">
        <g>
            <g transform="matrix(1.33903,0,0,2.14042,-111.736,25.5783)">
                <path d="M873.195,66.355C873.195,51.471 853.88,39.388 830.089,39.388L176.96,39.388C153.17,39.388 133.855,51.471 133.855,66.355L133.855,116.139C133.855,131.023 153.17,143.106 176.96,143.106L830.089,143.106C853.88,143.106 873.195,131.023 873.195,116.139L873.195,66.355Z" style="fill:rgb(229,228,255);"/>
            </g>
            <g transform="matrix(1.28061,0,0,1.22176,-188.783,-47.6053)">
                <path d="M387.43,128.904L387.43,310.609L245.198,310.609C220.322,310.609 200.126,289.44 200.126,263.365L200.126,176.147C200.126,150.073 220.322,128.904 245.198,128.904L387.43,128.904Z" style="fill:rgb(125,121,255);fill-opacity:0.3;"/>
            </g>
        </g>
    </g>
</svg>
